<?xml version="1.0" ?><!DOCTYPE svg  PUBLIC '-//W3C//DTD SVG 1.1//EN'  'http://www.w3.org/Graphics/SVG/1.1/DTD/svg11.dtd'><svg height="32px" style="fill-rule:evenodd;clip-rule:evenodd;stroke-linejoin:round;stroke-miterlimit:2;" version="1.1" width="32px" xml:space="preserve" xmlns="http://www.w3.org/2000/svg" xmlns:serif="http://www.serif.com/" xmlns:xlink="http://www.w3.org/1999/xlink"><path d="M11,3c0,-0 0,4.978 0,5c-0,0.552 0.448,1 1,1l4,0c0.552,0 1,-0.448 1,-1c0,-0.02 0,-1 0,-1l8,0l0,18c0,0 -8,-0 -8,-0c-0,-0 -0,-0.968 -0,-1c0,-0.552 -0.448,-1 -1,-1l-4,-0c-0.552,-0 -1,0.448 -1,1l0,5c-0,0.53 0.211,1.039 0.586,1.414c0.375,0.375 0.884,0.586 1.414,0.586c3.151,-0 12.849,-0 16,-0c0.53,0 1.039,-0.211 1.414,-0.586c0.375,-0.375 0.586,-0.884 0.586,-1.414l-0,-26c-0,-0.53 -0.211,-1.039 -0.586,-1.414c-0.375,-0.375 -0.884,-0.586 -1.414,-0.586c-3.151,0 -12.849,0 -16,-0c-0.53,-0 -1.039,0.211 -1.414,0.586c-0.375,0.375 -0.586,0.884 -0.586,1.414Zm0,10l-8,0c-1.105,0 -2,0.895 -2,2l0,2c0,1.105 0.895,2 2,2l8,0l0,1.131c0,0.738 0.406,1.416 1.056,1.764c0.651,0.348 1.44,0.31 2.054,-0.1l6.197,-4.132c0.556,-0.371 0.89,-0.995 0.89,-1.664c0,-0.669 -0.334,-1.293 -0.89,-1.664l-6.198,-4.131c-0.613,-0.409 -1.402,-0.447 -2.053,-0.099c-0.65,0.348 -1.056,1.026 -1.056,1.763l0,1.132Z"/></svg>